<?xml version="1.0" encoding="utf-8"?>
<!-- Generator: Adobe Illustrator 25.2.1, SVG Export Plug-In . SVG Version: 6.00 Build 0)  -->
<svg version="1.1" id="Capa_2" xmlns="http://www.w3.org/2000/svg" xmlns:xlink="http://www.w3.org/1999/xlink" x="0px" y="0px"
	 viewBox="0 0 489.2 500" style="enable-background:new 0 0 489.2 500;" xml:space="preserve">
<style type="text/css">
	.st0{opacity:0.15;fill:#D6D8E5;enable-background:new    ;}
	.st1{opacity:0.5;fill:#EDEFF9;enable-background:new    ;}
	.st2{fill:#EDEFF9;}
	.st3{fill:#FFBC00;}
	.st4{fill:#283E79;}
	.st5{fill:#424956;}
	.st6{fill:#494949;}
	.st7{fill:#2B303F;}
	.st8{opacity:0.4;fill:#D6D8E5;enable-background:new    ;}
	.st9{fill:#B1B4C4;}
	.st10{fill:#D6D8E5;}
	.st11{fill:#9EA1AF;}
	.st12{fill:#C4C7D6;}
	.st13{fill:#E4E7F2;}
	.st14{fill:#FFFFFF;}
	.st15{fill:#E9EAF2;}
	.st16{fill:#F5F6FF;}
	.st17{fill:none;stroke:#E9EAF2;stroke-width:0.31;stroke-miterlimit:10;}
	.st18{fill:none;stroke:#E9EAF2;stroke-width:1.53;stroke-miterlimit:10;}
	.st19{fill:#EDF0F9;}
	.st20{fill:#E2E5F2;}
	.st21{fill:#6E48E5;}
	.st22{fill:#5E42D3;}
	.st23{fill:#FFCEA9;}
	.st24{fill:#EDEDED;}
	.st25{fill:#38226D;}
	.st26{fill:#9C73FF;}
	.st27{fill:#F4F4F4;}
	.st28{fill:#3A2C6D;}
</style>
<g id="Слой_2">
	<g id="Слой_1-2">
		<path class="st0" d="M-248.9,229.9c19.9,0,36,9.3,36,20.8c0,11.5-16.1,20.8-36,20.8s-25.1,9.3-30.5-6.3
			C-286.9,243.4-268.7,229.9-248.9,229.9z"/>
		<ellipse class="st1" cx="-249.3" cy="248.4" rx="20.1" ry="11.6"/>
		<ellipse class="st2" cx="-249.5" cy="244.3" rx="5.7" ry="3.3"/>
		<rect x="-254.8" y="200.5" class="st2" width="11" height="43.2"/>
		<path class="st3" d="M-255.3,200c0,0,0.3,8.9,6.6,24.8c0,0,5.9-12.8,6.5-25.1C-241.6,187.5-255.3,200-255.3,200z"/>
		<polygon class="st4" points="-263,166.5 -277.7,180.8 -279.4,199.4 -261.7,190.5 -258.5,167.8 		"/>
		<polygon class="st4" points="-234.3,166.5 -219.7,180.8 -218,199.4 -235.7,189.9 -238.9,167.8 		"/>
		<ellipse class="st5" cx="-248.9" cy="198" rx="7.3" ry="4.2"/>
		<polygon class="st6" points="-259.9,193.8 -259.9,190.1 -237.9,190.1 -237.9,194 		"/>
		<ellipse class="st7" cx="-248.9" cy="193.8" rx="11" ry="6.4"/>
		<ellipse class="st2" cx="-248.9" cy="188.1" rx="13.5" ry="7.8"/>
		<path class="st2" d="M-234.4,174.3L-234.4,174.3c0,0.6,0,1.2,0,1.8c0,0.5,0,1,0,1.5c0,0.7,0,1.3-0.1,1.9c0,0.8-0.1,1.5-0.1,2.2
			c0,0.7-0.1,1.4-0.1,2.1c-0.2,2.8-0.2,4.9-0.6,5.7c-1.9,4.5-8.3,2-11.5,0.4c-1.2-0.6-1.9-1.1-1.9-1.1h-0.3c0,0-0.9,0.5-2.3,1
			c-3.3,1.4-9.3,3.7-10.9-0.4c-0.3-0.7-0.6-3.2-0.8-5.7c0-0.6-0.1-1.3-0.1-2.1c0-0.7-0.1-1.5-0.1-2.2c0-0.6,0-1.3-0.1-1.9
			c0-0.5,0-1,0-1.5l0,0v-1.8l0,0c-0.1-17.4,1.8-45.3,7.9-57.2c1.8-3.4,3.9-5.6,6.4-5.7l0,0h0.3l0,0c2.5,0.1,4.6,2.2,6.4,5.7
			C-236.2,128.8-234.3,156.6-234.4,174.3z"/>
		<circle class="st7" cx="-248.8" cy="152.7" r="5.1"/>
		<path class="st5" d="M-248.8,158.5c-3.2,0-5.8-2.6-5.8-5.8s2.6-5.8,5.8-5.8s5.8,2.6,5.8,5.8C-243,155.9-245.6,158.5-248.8,158.5z
			 M-248.8,148.4c-2.4,0-4.3,1.9-4.3,4.3c0,2.4,1.9,4.3,4.3,4.3c2.4,0,4.3-1.9,4.3-4.3c0,0,0,0,0,0
			C-244.5,150.3-246.4,148.4-248.8,148.4z"/>
		<circle class="st7" cx="-248.8" cy="137.8" r="5.1"/>
		<path class="st5" d="M-248.8,143.6c-3.2,0-5.8-2.6-5.8-5.8c0-3.2,2.6-5.8,5.8-5.8c3.2,0,5.8,2.6,5.8,5.8
			C-243,141-245.6,143.6-248.8,143.6z M-248.8,133.4c-2.4,0-4.3,1.9-4.3,4.3c0,2.4,1.9,4.3,4.3,4.3s4.3-1.9,4.3-4.3c0,0,0,0,0,0
			C-244.5,135.4-246.4,133.4-248.8,133.4L-248.8,133.4L-248.8,133.4z"/>
		<path class="st4" d="M-234.4,184.3c0,0.6,0,1.2,0,1.8c-0.5,1.6-1.9,3.2-4.1,4.5c-5.7,3.3-15,3.3-20.8,0c-2.2-1.3-3.6-2.9-4.1-4.5
			l0,0v-1.8c0.5,1.7,1.9,3.3,4.1,4.6c5.7,3.3,15,3.3,20.8,0C-236.2,187.6-234.8,186-234.4,184.3z"/>
		<path class="st4" d="M-234.4,187.2c0,0.7,0,1.3-0.1,1.9c-0.6,1.6-1.9,3-4,4.3c-5.7,3.3-15,3.3-20.8,0c-2.1-1.2-3.4-2.7-4-4.3
			c0-0.6,0-1.3-0.1-1.9c0.5,1.6,1.9,3.2,4,4.4c5.7,3.3,15,3.3,20.8,0C-236.3,190.4-234.9,188.8-234.4,187.2z"/>
		<path class="st4" d="M-234.6,182.1c-0.6,1.5-1.9,2.9-3.9,4c-5.7,3.3-15,3.3-20.8,0c-2-1.2-3.3-2.6-3.9-4c0,0.7,0.1,1.4,0.1,2.1
			c0.6,1.4,1.9,2.7,3.8,3.8c2.4,1.3,5.1,2.1,7.9,2.4c1.5,0.1,3,0.2,4.5,0c2.9-0.2,5.8-1,8.3-2.4c1.9-1.1,3.1-2.4,3.8-3.7
			L-234.6,182.1z"/>
		<path class="st4" d="M-242.3,117c-4.3,1.3-8.8,1.3-13.1,0c1.8-3.4,3.9-5.6,6.4-5.7l0,0h0.3l0,0
			C-246.2,111.5-244.1,113.5-242.3,117z"/>
		<rect x="-249.9" y="166.6" class="st4" width="2.5" height="32.8"/>
		<g id="monitor">
			<path class="st8" d="M-129.1,280.7l-29-16.7c-2.1-1.2-1.8-3.3,0.6-4.7l18.8-10.8l36.6,21.1l-18.8,10.9
				C-123.4,281.8-127.1,281.9-129.1,280.7z"/>
			<path class="st9" d="M-127,279.5l-29-16.8c-2.1-1.2-1.8-3.3,0.6-4.7l18.8-10.8l36.6,21.1l-18.8,10.8
				C-121.3,280.5-124.9,280.7-127,279.5z"/>
			<polygon class="st9" points="-100.1,268.3 -100.1,267.2 -101.8,268.1 			"/>
			<polygon class="st9" points="-157.4,260.7 -157.4,259.6 -155.7,260.3 			"/>
			<path class="st10" d="M-127,278.3l-29-16.7c-2.1-1.2-1.8-3.3,0.6-4.7l18.8-10.9l36.6,21.1l-18.8,10.8
				C-121.3,279.4-124.9,279.6-127,278.3z"/>
			<polygon class="st11" points="-136.6,246.1 -141.1,231.1 -104.1,252.3 -100.1,267.2 			"/>
			<path class="st11" d="M-101.1,267.8l1.1-0.6l-1.6-1.3L-101.1,267.8z"/>
			<polygon class="st9" points="-137.7,246.7 -142.2,231.6 -105.3,252.8 -101.1,267.8 			"/>
			<path class="st12" d="M-43.8,293.1L-187,210.5c-2-1.2-3.6-4.3-3.6-6.9V92.8c0-2.7,1.6-3.9,3.6-2.8l143.1,82.6
				c2,1.2,3.6,4.3,3.6,6.9v110.7C-40.2,293-41.8,294.2-43.8,293.1z"/>
			<polygon class="st12" points="-43.1,294.2 -41.5,293.3 -42.2,288.6 			"/>
			<path class="st9" d="M-190.9,90.7l1.6-0.9l2.2,1.3c0,0-2.4,0.4-2.4,0.4C-189.6,91.4-190.9,90.7-190.9,90.7z"/>
			<path class="st13" d="M-45.2,293.8l-143.1-82.6c-2-1.2-3.6-4.3-3.6-6.9V93.6c0-2.7,1.6-3.9,3.6-2.7l143.1,82.6
				c2,1.2,3.6,4.3,3.6,6.9v110.7C-41.5,293.8-43.2,295-45.2,293.8z"/>
			<path class="st10" d="M-45.4,294l-143.1-82.6c-2-1.2-3.6-4.3-3.6-6.9V93.7c0-2.7,1.6-3.9,3.6-2.7l143.1,82.7
				c2,1.2,3.6,4.3,3.6,6.9v110.7C-41.8,293.9-43.4,295.2-45.4,294z"/>
			<path class="st14" d="M-43.8,287.3l-146.6-84.6l0.1-108.5c0-1.1,0.8-1.6,1.7-1l143.1,82.6c1,0.7,1.7,1.8,1.7,3L-43.8,287.3z"/>
			<path class="st15" d="M-132.5,140.7l-47-27.1c-0.4-0.3-0.7-0.8-0.7-1.4v-3.3c0-0.5,0.3-0.8,0.7-0.5l47,27.1
				c0.4,0.3,0.7,0.8,0.7,1.4v3.3C-131.8,140.6-132.1,140.9-132.5,140.7z"/>
			<path class="st15" d="M-144.5,141.4l-34.7-20c-0.4-0.3-0.7-0.8-0.7-1.4v-1.6c0-0.5,0.3-0.8,0.7-0.5l34.7,20
				c0.4,0.3,0.7,0.8,0.7,1.4v1.6C-143.8,141.4-144.1,141.7-144.5,141.4z"/>
			<path class="st15" d="M-144.5,147.6l-34.7-20c-0.4-0.3-0.7-0.8-0.7-1.4v-1.6c0-0.5,0.3-0.8,0.7-0.5l34.7,20
				c0.4,0.3,0.7,0.8,0.7,1.4v1.6C-143.8,147.6-144.1,147.8-144.5,147.6z"/>
			<path class="st4" d="M-151.1,150l-28.1-16.2c-0.4-0.3-0.7-0.8-0.7-1.4v-1.6c0-0.5,0.3-0.8,0.7-0.5l28.1,16.2
				c0.4,0.3,0.7,0.8,0.7,1.4v1.6C-150.4,150-150.7,150.2-151.1,150z"/>
			<path class="st15" d="M-132.5,205.5l-47-27.1c-0.4-0.3-0.7-0.8-0.7-1.4v-3.3c0-0.5,0.3-0.8,0.7-0.5l47,27.1
				c0.4,0.3,0.7,0.8,0.7,1.4v3.3C-131.8,205.5-132.1,205.8-132.5,205.5z"/>
			<path class="st15" d="M-144.5,206.3l-34.7-20c-0.4-0.3-0.7-0.8-0.7-1.4v-1.6c0-0.5,0.3-0.8,0.7-0.5l34.7,20
				c0.4,0.3,0.7,0.8,0.7,1.4v1.6C-143.8,206.3-144.1,206.5-144.5,206.3z"/>
			<path class="st15" d="M-144.5,212.5l-34.7-20c-0.4-0.3-0.7-0.8-0.7-1.4v-1.6c0-0.5,0.3-0.8,0.7-0.5l34.7,20
				c0.4,0.3,0.7,0.8,0.7,1.4v1.6C-143.8,212.5-144.1,212.7-144.5,212.5z"/>
			<path class="st4" d="M-151.1,214.9l-28.1-16.2c-0.4-0.3-0.7-0.8-0.7-1.4v-1.6c0-0.5,0.3-0.8,0.7-0.5l28.1,16.2
				c0.4,0.3,0.7,0.8,0.7,1.4v1.6C-150.4,214.9-150.7,215.1-151.1,214.9z"/>
			<path class="st16" d="M-119.9,213.6c0,0,5.2,4.4,12.7-1.6c5.3-4.4,10.1-1.9,12.8-0.4s6.5,2.4,13.8,15.6c0,0,2.4,4.1,6.3,6.4
				s5.8,1.2,8.9-3.5s5.1-9.8,10.8-6.4v46.8l-65.8-37.9v-19.3L-119.9,213.6z"/>
			<path class="st15" d="M-134.2,193.7l-45-26c-0.4-0.3-0.7-0.8-0.7-1.4v-26c0-0.5,0.3-0.8,0.7-0.5l45,26c0.4,0.3,0.7,0.8,0.7,1.4
				v26C-133.5,193.7-133.8,193.9-134.2,193.7z"/>
			<polyline class="st17" points="-120.4,212.5 -120.4,232.6 -54.6,270.6 -54.6,223.7 			"/>
			<line class="st17" x1="-94.6" y1="211.8" x2="-94.6" y2="247.5"/>
			<line class="st17" x1="-74.4" y1="234.4" x2="-74.4" y2="259.1"/>
			<path class="st18" d="M-120.4,213.3c11.7,7.2,13.3-9.1,26-1.8c12.7,7.3,11,16.9,20.3,22.3s9.6-15.8,19.4-10.1"/>
			<ellipse transform="matrix(0.866 -0.5 0.5 0.866 -118.5979 -18.9061)" class="st4" cx="-94.6" cy="211.9" rx="1.3" ry="2.2"/>
			
				<ellipse transform="matrix(0.867 -0.4983 0.4983 0.867 -118.8945 3.0506)" class="st4" cx="-53.7" cy="224.3" rx="1.3" ry="2.2"/>
			
				<ellipse transform="matrix(0.867 -0.4983 0.4983 0.867 -126.6497 -5.493)" class="st4" cx="-73.6" cy="234.5" rx="1.3" ry="2.2"/>
			<ellipse transform="matrix(0.866 -0.5 0.5 0.866 -122.7749 -31.6381)" class="st4" cx="-120.4" cy="213.3" rx="1.3" ry="2.2"/>
			<path class="st15" d="M-118.6,178.7l-2.7-1.6c-0.4-0.3-0.7-0.8-0.7-1.4v-13c0-0.5,0.3-0.8,0.7-0.5l2.7,1.6
				c0.4,0.3,0.7,0.8,0.7,1.3v13C-117.8,178.7-118.2,179-118.6,178.7z"/>
			<path class="st4" d="M-112.3,182.3l-2.7-1.6c-0.4-0.3-0.7-0.8-0.7-1.4v-26.5c0-0.5,0.3-0.8,0.7-0.5l2.7,1.6
				c0.4,0.3,0.7,0.8,0.7,1.4v26.5C-111.6,182.3-112,182.5-112.3,182.3z"/>
			<path class="st15" d="M-99.9,189.5l-2.7-1.6c-0.4-0.3-0.7-0.8-0.7-1.4v-23.9c0-0.5,0.3-0.8,0.7-0.5l2.7,1.6
				c0.4,0.3,0.7,0.8,0.7,1.4v23.9C-99.2,189.5-99.6,189.7-99.9,189.5z"/>
			<path class="st4" d="M-93.7,193.1l-2.7-1.6c-0.4-0.3-0.7-0.8-0.7-1.4v-19.8c0-0.5,0.3-0.8,0.7-0.5l2.7,1.6
				c0.4,0.3,0.7,0.8,0.7,1.4v19.8C-93,193.1-93.3,193.3-93.7,193.1z"/>
			<path class="st15" d="M-81.4,200.2l-2.7-1.6c-0.4-0.3-0.7-0.8-0.7-1.4v-9.8c0-0.5,0.3-0.8,0.7-0.5l2.7,1.6
				c0.4,0.3,0.7,0.8,0.7,1.4v9.8C-80.7,200.2-81,200.4-81.4,200.2z"/>
			<path class="st4" d="M-75.2,203.8l-2.7-1.6c-0.4-0.3-0.7-0.8-0.7-1.4v-33.3c0-0.5,0.3-0.8,0.7-0.5l2.7,1.6
				c0.4,0.3,0.7,0.8,0.7,1.4v33.3C-74.4,203.8-74.8,204-75.2,203.8z"/>
			<path class="st15" d="M-60,212.5l-2.7-1.6c-0.4-0.3-0.7-0.8-0.7-1.4v-9.8c0-0.5,0.3-0.8,0.7-0.5l2.7,1.6c0.4,0.3,0.7,0.8,0.7,1.4
				v9.8C-59.3,212.5-59.6,212.8-60,212.5z"/>
			<path class="st4" d="M-53.8,216.1l-2.7-1.6c-0.4-0.3-0.7-0.8-0.7-1.4v-13c0-0.5,0.3-0.8,0.7-0.5l2.7,1.6c0.4,0.3,0.7,0.8,0.7,1.4
				v13C-53.1,216.1-53.4,216.3-53.8,216.1z"/>
		</g>
		<path class="st8" d="M-232.4,338.6l-22.3-12.9c-2.5-1.5-2.2-4,0.7-5.7l11.3-6.5c2.9-1.7,7.3-1.9,9.9-0.4l22.3,12.9
			c2.5,1.5,2.2,4-0.7,5.7l-11.3,6.5C-225.4,339.9-229.8,340.1-232.4,338.6z"/>
		<path class="st10" d="M-198.8,322.5v-31.2l-47.7-5.4v31.4l0,0c0,1,0.5,1.9,1.7,2.6l22.3,12.9c2.5,1.5,6.9,1.3,9.9-0.4l11.3-6.5
			C-199.6,324.9-198.8,323.7-198.8,322.5L-198.8,322.5z"/>
		<path class="st19" d="M-198.9,294.8v-3.4h-3.7l-20.4-11.8c-2.5-1.5-6.9-1.3-9.9,0.4l-11.3,6.6c-0.2,0.1-0.4,0.2-0.6,0.4l-1.8-0.9
			c0,0,0,3.6,0,3.7l0,0c0,0.9,0.5,1.9,1.7,2.5l22.3,12.9c2.5,1.5,6.9,1.3,9.9-0.4l11.3-6.5C-199.6,297.2-198.8,296-198.9,294.8
			L-198.9,294.8z"/>
		<path class="st20" d="M-222.5,301.5l-22.3-12.9c-2.5-1.5-2.2-4,0.7-5.7l11.3-6.5c2.9-1.7,7.3-1.9,9.9-0.4l22.3,12.9
			c2.5,1.5,2.2,4-0.7,5.7l-11.3,6.5C-215.5,302.7-219.9,302.9-222.5,301.5z"/>
		<path class="st21" d="M-227.5,283.9v-1.2h-0.8l-0.2-0.1c-1.5-0.8-3.3-0.8-4.8,0c-0.1,0.1-0.3,0.2-0.4,0.3l-0.6-0.1v1.2
			c0.1,0.6,0.4,1.1,1,1.4c1.5,0.8,3.3,0.8,4.8,0C-227.9,285-227.6,284.5-227.5,283.9z"/>
		<ellipse class="st4" cx="-230.9" cy="282.6" rx="3.4" ry="2"/>
		<path class="st22" d="M-219,289.1c-0.2,0.4-0.5,0.8-0.9,1c-1.5,0.8-3.3,0.8-4.8,0c-0.4-0.2-0.7-0.5-0.9-1
			c-0.2-0.6,0.1-1.3,0.9-1.8c1.5-0.8,3.3-0.8,4.8,0C-219.1,287.8-218.8,288.4-219,289.1z"/>
		<path class="st4" d="M-219,289.1c-0.2,0.4-0.5,0.8-0.9,1c-1.5,0.8-3.3,0.8-4.8,0c-0.5,0-0.9-0.5-0.9-1c0-0.5,0.4-0.9,0.9-0.9
			c1.5-0.8,3.3-0.8,4.8,0C-219.6,288.4-219.2,288.7-219,289.1z"/>
		<path class="st21" d="M-211,293.5v-1.2h-0.8l-0.2-0.1c-1.5-0.8-3.3-0.8-4.8,0c-0.1,0.1-0.3,0.2-0.4,0.3l-0.6-0.1v1.2
			c0.1,0.6,0.4,1.1,1,1.4c1.5,0.8,3.3,0.8,4.8,0C-211.5,294.7-211.1,294.2-211,293.5z"/>
		<ellipse class="st4" cx="-214.4" cy="292.3" rx="3.4" ry="2"/>
		<g id="Men_2">
			<path id="_Контур_" class="st23" d="M-252.2,278.9c-0.1,1.2-1.5,6.2-1.2,7.9c0.3,1.7,5.1,4.6,5.1,4.6l0.7-3l-2.6-2.6
				l0.7-4.9L-252.2,278.9z"/>
			<path id="_Контур_2" class="st24" d="M-248.5,273.9c-1-0.4-2.1-0.1-2.6,0.8c-0.7,1.2-1.4,5.1-1.5,5.8c0,0,1,1.4,2.5,1.1
				L-248.5,273.9z"/>
			<path class="st25" d="M-243.1,330c1,0.3,2.1,0.1,3.1-0.4c0.7,0,4.8-1.7,5.3-0.3c0.5,1.3-1.3,2.4-2.2,2.7c-2,0.5-3.5,1.5-4.4,1.7
				c-0.6,0.1-1.4,0.2-1.9-0.3C-243.7,332.9-243.7,330.7-243.1,330z"/>
			<path class="st26" d="M-241.2,333.4c0.8-0.2,2.3-1.2,4.4-1.7c0.8-0.2,2.1-1,2.3-2.1c0.2,1.2-1.4,2.2-2.3,2.4
				c-2,0.5-3.5,1.5-4.4,1.7c-0.6,0.1-1.4,0.2-1.9-0.3c-0.1-0.1-0.2-0.3-0.3-0.5C-242.8,333.4-242,333.6-241.2,333.4z"/>
			<path class="st25" d="M-249.6,327.1c1,0.3,2.1,0.2,3.1-0.4c0.7,0,4.8-1.7,5.3-0.3c0.5,1.3-1.3,2.4-2.2,2.7
				c-2,0.5-3.5,1.5-4.3,1.7c-0.6,0.1-1.4,0.2-1.9-0.3C-250.2,329.9-250.2,327.8-249.6,327.1z"/>
			<path class="st26" d="M-247.8,330.4c0.8-0.2,2.3-1.2,4.3-1.7c0.8-0.2,2.1-1,2.3-2.1c0.2,1.2-1.4,2.2-2.3,2.4
				c-2,0.5-3.5,1.5-4.3,1.7c-0.6,0.1-1.4,0.2-1.9-0.3c-0.1-0.1-0.2-0.3-0.3-0.5C-249.3,330.5-248.5,330.6-247.8,330.4z"/>
			<path id="_Контур_3" class="st4" d="M-249.7,316.1c0.2-1.5,0.5-3,0.9-4.4c0,0-0.3-3.8-0.4-7.4c-0.2-4.1-1.6-7.7-0.5-11
				l12.6,2.8c0,0-0.8,16.3-0.9,18.3c-0.1,1.5-0.3,3.1-0.6,4.6c-0.6,3.2-1.5,10.7-1.5,10.7c-1.3,0.8-3.1,0.3-3.1,0.3
				s0.1-9.5,0.2-11.8c0.1-2.8,0.2-2.6,0.2-2.6l-0.4-6.9l-0.3-3.5c0,0-0.3,2.5-0.6,4.8c-0.2,2-0.7,3.8-1.2,7.4
				c-0.5,3.2-1.2,9.6-1.2,9.6c-1.3,0.8-3.1,0.1-3.1,0.1S-250,318.9-249.7,316.1z"/>
			<path id="_Контур_4" class="st23" d="M-247.8,274c1,0.1,1.7,0.3,1.8,0c0.1-0.5,0.2-1,0.2-1.5c-0.1-0.3-0.2-0.6-0.2-0.6
				c-1.2-0.7-1.6-2-1.7-3.6c-0.3-2.6,1.1-4.9,3.7-5.1c2.4-0.3,4.2,1.5,4.7,3.8c0.3,1.2,0.8,3.4,0.1,5.3c-0.4,1.1-0.9,1.9-1.4,2.1
				c-0.5,0-1-0.1-1.4-0.1l0,0c0,0-0.1,0.7-0.2,1.2s-0.1,0.7,0.9,1.3c0.9,0.6-1.4,1.8-2.9,1.6c-1.5-0.1-3.2-1-3.7-2
				C-248.6,275.2-248.5,273.9-247.8,274z"/>
			<path id="_Контур_5" class="st27" d="M-246.5,274.1c-0.3,0.7,0.4,1.5,2.2,2c1.8,0.5,2-0.2,2-0.2c1.2,0.5,2.4,1.1,3.5,1.8
				c1.1,0.8,1.6,3,1.7,6.6c0.2,4.3,0.2,10.6,0,11.7c0,0-2,2-4.6,1.8c-2.6-0.2-6.9-2.5-8-4.3c0-3.8,0.5-4.4-0.1-6.5
				c-1.4-4.9-2.1-7-1.4-10.3c0.6-2.7,1.3-3.1,2.4-3C-248,273.9-247.2,274-246.5,274.1z"/>
			<path id="_Контур_6" class="st23" d="M-233,288c-2.1,0.5-2.6-0.8-2.9-1.9c-0.7-2.7-1-5.1-1.5-6.6c-0.6-1.8-1.2-2.1-2.1-2.4
				c-1-0.4-1.9,0.5-1.6,2.7c0.4,2.7,1.1,5.3,2,7.8c0.3,0.8,0.9,2.3,1.7,3c1.1,0.9,2.8,0.9,5.2,0.2c1.1-0.3,2.2-0.9,4.2-1.8
				c0.5-0.2,1-0.4,2-0.9c1-0.5,2-1.2,2.7-2.1c0.5-0.8,0.6-1.2,0.5-1.3c-0.1-0.2-0.4-0.2-0.7,0.2c-0.4,0.6-0.9,1-1.5,1.4
				c0,0,0.7-0.7,1-1.1c0.3-0.4,0.6-0.8,0.8-1.3c0.2-0.5-0.2-1.1-0.5-0.8c-0.3,0.3-0.4,0.7-1,1.3c-0.3,0.4-0.6,0.7-1,0.9
				c0.3-0.5,0.6-0.9,0.9-1.5c0.2-0.4,0.4-0.9,0.3-1.3c0-0.2-0.4-0.5-0.7-0.1c-0.3,0.6-0.7,1.2-1.1,1.7c-0.5,0.5-0.9,0.8-0.9,0.6
				c0-0.1,0.3-0.4,0.5-1c0.2-0.6,0-1.2-0.3-1.3c-0.3-0.1-0.3,0-0.5,0.5c-0.4,0.6-0.7,1.2-1,1.8c-0.2,0.6-0.5,1.1-0.9,1.5
				C-229.8,286.9-231,287.5-233,288z"/>
			<path id="_Контур_7" class="st24" d="M-240.3,276.6c1.4-0.2,2.4,0.4,3.1,2.6c0.6,2.2,1.1,3.9,1.1,3.9
				c-0.6,0.8-1.4,1.4-2.4,1.6c-1.7,0.4-2.3-0.4-2.3-0.4s-0.5-2.2-0.8-3.8S-242.1,276.9-240.3,276.6z"/>
			<path class="st28" d="M-239.4,266.7c0,0,2.2-3.4-2.6-4.1c-3.5-0.5-5.8,1.8-6,4.2c-0.2,2.3,1.2,4.8,2.2,5.7c1,0.3,2.1,0.1,3-0.4
				c0.1-0.6,0.1-1.3,0.1-1.9C-242.7,270.2-244.4,266.6-239.4,266.7z"/>
		</g>
		<ellipse class="st8" cx="-93.6" cy="324.9" rx="12.3" ry="7.1"/>
		<g id="Girl_14">
			<path id="_Контур_8" class="st28" d="M-93.7,256.3c0.5-0.8,4.4-1.4,5.7,1.9c0.5,1.2,0.4,4.4,0.8,6.4c0.4,2,1.4,3.1,1.7,4.8
				s-0.2,4.4-4.1,4.8c-3.9,0.5-6.9-0.9-7.9-2.1s-0.9-3.9,0-5.3s1.7-2.6,1.7-4.4L-93.7,256.3z"/>
			<path id="_Контур_9" class="st28" d="M-91.1,255.7c0,0-2.9-0.8-4.7,0.7c-1.2,1.1-1.7,2.8-1.2,4.3c0.2,0.9,0.7,2.2,1.4,2.3
				S-91.1,255.7-91.1,255.7z"/>
			<path id="_Контур_10" class="st23" d="M-90,263.7c0,0-0.2,3.3-0.1,3.5c0.1,0.2,1.3,0.5,1.6,0.8c0.3,0.3-1.8,3.6-2.9,4.1
				c-1.1,0.5-4.4-0.8-4.6-2.4c-0.2-1.5,1-2.7,1.4-3.1c0.3,0,0.6,0,0.9,0l0.1-1.6C-92.1,264.4-90,263.7-90,263.7z"/>
			<path class="st23" d="M-97.8,269.9c0-0.1-0.5,0.2-0.5,0.2s-0.2,8.4-0.6,9.1l0,0c-1,1.8-3.8,4.8-3.9,5.1c-0.2,1,0.4,0.1,1.3,0
				c0.5-0.1,3.7-3.2,4.4-4l0,0v-0.1l0.1-0.1c0-0.2,0-0.5,0-0.7C-95.7,270.4-97.3,269.8-97.8,269.9z"/>
			<path id="_Контур_11" class="st27" d="M-89.5,267.5c0.9,0.1,2,0.6,2.1,1.1c0.4,1.8,0.3,3.7-0.3,5.5
				c-0.8,2.1-1.3,3.4-1.8,4.3c0,0-4,1.7-7.2-0.3c0,0-0.2-2.2-0.2-3.5c-2.9-2.6-0.4-5.8,2.1-8.2c0.3,0,0.6,0,0.9,0
				c0,0-2.2,2.6-0.7,4.1C-91.2,269.6-90.6,268.1-89.5,267.5z"/>
			<path id="_Контур_12" class="st23" d="M-96.1,259.7L-96.1,259.7c0.3-2.1,1.8-3.7,4-3.6c2.3,0.1,4,2.1,3.9,4.4
				c-0.1,1.3-0.8,2.5-1.8,3.2c-0.1,0.3-0.2,0.6-0.3,0.9c-0.8,0.9-2.8,1.5-3.5,1.5c-0.6,0-1.1-0.5-1.6-1.4
				C-96.5,262.8-96.2,260.7-96.1,259.7z"/>
			<path class="st28" d="M-91.4,256.2c1.5,0.3,2.8,0.7,3.2,2.2c0.3,1,0.6,3,0.3,3.8l-0.2,0.6l-1.8,0.9c0,0-0.9-0.7-0.6-2.8
				c0-0.3-0.1-0.6-0.3-0.8c-0.1-0.2-0.2-0.4-0.3-0.6c-0.2-0.6-0.6-1-1.2-1.3c-1.4-0.8-3.4-0.1-3.6,0.2
				C-95.1,256.7-93.2,255.7-91.4,256.2z"/>
			<path class="st25" d="M-88.6,322.5c-0.8,0.6-2,0.2-2,0.2c-0.9,0.8-1.8,1.5-2.8,2.1c-0.5,0.4-1.2,0.9-1.1,1.6
				c0.2,1.3,2.3,0.9,3.1,0.5s1.4-1.1,2.2-1.5c0.5-0.3,1-0.5,1.1-1.2C-88.1,323.9-88.5,322.4-88.6,322.5z"/>
			<path class="st26" d="M-88.2,324c-0.1,0.6-0.6,0.8-1.1,1.1c-0.8,0.5-1.4,1.1-2.2,1.5c-0.8,0.4-2.5,0.7-3-0.2
				c0.3,1.2,2.3,0.9,3.1,0.5s1.4-1.1,2.2-1.5c0.5-0.3,1-0.5,1.1-1.2C-88.2,324.2-88.2,324.1-88.2,324z"/>
			<path class="st25" d="M-94,321.4c-0.7,0.6-1.8,0.2-1.8,0.3c-0.8,0.7-1.7,1.4-2.6,2c-0.4,0.3-1.1,0.8-1,1.5
				c0.2,1.2,2.1,0.8,2.8,0.5c0.7-0.4,1.3-1,2-1.4c0.5-0.3,1-0.5,1-1.1C-93.5,322.8-93.9,321.4-94,321.4z"/>
			<path class="st26" d="M-93.6,322.9c-0.1,0.6-0.6,0.7-1,1c-0.7,0.4-1.3,1-2,1.4c-0.7,0.4-2.3,0.7-2.8-0.2c0.2,1.1,2.1,0.8,2.8,0.4
				c0.7-0.4,1.3-1,2-1.4c0.5-0.3,1-0.5,1-1.1C-93.5,323-93.5,323-93.6,322.9z"/>
			<path class="st23" d="M-98.1,285.7c0.3-2.6,1.3-6.5,1.3-6.5c0.9,0.4,1.9,0.7,2.9,0.7c1.5,0,3-0.1,4.4-0.4c0.5,0.8,1,1.6,1.6,2.4
				c0.8,1.1,2.2,3.4,1.9,7.4c-0.2,2.6-1.7,13.9-1.7,13.9c0.6,1.9,0.9,3.9,0.9,5.8c-0.1,2.4-0.5,4.7-0.9,7l-0.9,6.4
				c0,0-1.2,0.9-2,0.2l0.1-6.2c-0.1-1.5-0.3-3.8-0.4-5.2c-0.2-2.4-0.6-6.1-0.7-7c-0.1-0.9-0.4-2.6-0.6-4.4s-0.8-11.1-0.8-11.1
				l-0.1,1.7c0,0-0.1,2.8-0.5,6.3c-0.4,3.5-0.5,5-0.5,5c0.4,0.7,0.7,1.5,0.8,2.2c0.1,0.8,0.9,6.7,0.4,9.7l-1.1,7.7
				c-0.5,0.4-1.2,0.5-1.8,0.2l-0.6-7.7c-0.4-2.9-1.3-9.2-1.4-10c-0.3-1.6-0.5-3.3-0.5-5C-98.6,295.6-98.5,288.3-98.1,285.7z"/>
			<path class="st4" d="M-89.5,278.5l2.3,4.6c0,0,3.5,5.1-0.1,18.2l0.7,4c0,0-6.8,4.4-11.4,0c0,0-1.6-12.1-0.7-17.7
				c0.5-3.2,1.2-6.4,2.1-9.5c0,0,1.1,1.2,6.9,0.4"/>
			<path class="st24" d="M-94.8,266.5c0,0-1.8-0.6-3.7,3.5l0.7,0.4C-97.8,270.4-95.9,267.5-94.8,266.5z"/>
			<g>
				<polygon class="st27" points="-108.9,288.3 -101.1,283.7 -95.5,287 -103.3,291.5 				"/>
			</g>
			<path class="st23" d="M-102.1,284.1c-0.5,0-1,0.2-1.4,0.5c-0.2,0.1-0.3,0.3-0.5,0.4c-0.1,0-0.1,0.1-0.2,0.1
				c-0.1,0-0.2,0.1-0.3,0.2c-0.1,0.1-0.1,0.3-0.1,0.4c0,0.2-0.1,0.4,0,0.6c0.1,0.3,0.4,0.3,0.5,0.1c0.1-0.1,0.1-0.2,0.1-0.3
				c0-0.2,0.1-0.5,0.3-0.6l1.9-1.2C-102,284.1-102,284.1-102.1,284.1z"/>
			<path class="st23" d="M-87.3,270.1c-0.3-1.1-1.1-0.7-1.8-1.3c-1.7,2.3-0.6,8.7-0.3,9.4l-6.4,4.1l0,0l-0.4,0.3
				c-0.7,0.5-1.5,0.8-2.4,1c-0.6,0.1-1,1-1.6,1c-0.1,0-0.3,0.1-0.3,0.3c0,0.1,0,0.1,0.1,0.2c0.3,0.3,1,0,1.5-0.5c0,0,0,0,0,0
				c0,0.2,0.1,0.4,0.3,0.5c0,0,0.1,0,0.1,0c0,0,0,0.1,0,0.1c0.1,0.1,0.2,0.3,0.4,0.3l0,0c0.1,0.2,0.3,0.3,0.5,0.3
				c0.1,0,0.3-0.1,0.4-0.2c0.5-0.2,1-0.6,1.4-1c0.3-0.3,0.7-0.7,1-1c1.7-0.7,6.9-3,7.1-3.3C-87.3,279.8-86.9,271.6-87.3,270.1z"/>
			<path class="st24" d="M-86.7,273c0,0-2,0.9-3.7,0.1l0.2-3.2c0,0,0-1.7,1.6-1.9C-87.1,267.8-86.3,269.7-86.7,273z"/>
		</g>
	</g>
</g>
</svg>
